<?xml version="1.0" encoding="UTF-8" standalone="no"?>
<!DOCTYPE svg PUBLIC "-//W3C//DTD SVG 1.1//EN"
 "http://www.w3.org/Graphics/SVG/1.1/DTD/svg11.dtd">
<!-- Generated by graphviz version 2.36.0 (20140111.2315)
 -->
<!-- Title: G Pages: 1 -->
<svg width="794pt" height="3102pt"
 viewBox="0.00 0.00 794.00 3102.00" xmlns="http://www.w3.org/2000/svg" xmlns:xlink="http://www.w3.org/1999/xlink">
<g id="graph0" class="graph" transform="scale(1 1) rotate(0) translate(4 3098)">
<title>G</title>
<polygon fill="white" stroke="none" points="-4,4 -4,-3098 790,-3098 790,4 -4,4"/>
<g id="clust1" class="cluster"><title>cluster_Global</title>
<path fill="none" stroke="gray" d="M269,-530C269,-530 766,-530 766,-530 772,-530 778,-536 778,-542 778,-542 778,-3074 778,-3074 778,-3080 772,-3086 766,-3086 766,-3086 269,-3086 269,-3086 263,-3086 257,-3080 257,-3074 257,-3074 257,-542 257,-542 257,-536 263,-530 269,-530"/>
<text text-anchor="middle" x="517.5" y="-3073.2" font-family="Times,serif" font-size="11.00" fill="gray">Global</text>
</g>
<!-- \\ilExamMgrCoursesList -->
<g id="node1" class="node"><title>\\ilExamMgrCoursesList</title>
<polygon fill="none" stroke="black" points="719,-1924 567,-1924 567,-1888 719,-1888 719,-1924"/>
<text text-anchor="middle" x="643" y="-1903.2" font-family="Courier,monospace" font-size="11.00">ilExamMgrCoursesList</text>
</g>
<!-- \\ilExamMgrFormElement -->
<g id="node31" class="node"><title>\\ilExamMgrFormElement</title>
<polygon fill="none" stroke="black" points="417,-1843 265,-1843 265,-1807 417,-1807 417,-1843"/>
<text text-anchor="start" x="307" y="-1828.2" font-family="Courier,monospace" font-size="11.00">«abstract»</text>
<text text-anchor="start" x="273" y="-1816.2" font-family="Courier,monospace" font-size="11.00">ilExamMgrFormElement</text>
</g>
<!-- \\ilExamMgrCoursesList&#45;&gt;\\ilExamMgrFormElement -->
<g id="edge1" class="edge"><title>\\ilExamMgrCoursesList&#45;&gt;\\ilExamMgrFormElement</title>
<path fill="none" stroke="black" d="M566.783,-1891.04C550.001,-1887.38 532.34,-1883.28 516,-1879 479.119,-1869.35 438.395,-1856.81 405.623,-1846.25"/>
<polygon fill="none" stroke="black" points="406.313,-1842.8 395.721,-1843.04 404.154,-1849.45 406.313,-1842.8"/>
</g>
<!-- \\ilExamMgrFormRuns -->
<g id="node2" class="node"><title>\\ilExamMgrFormRuns</title>
<polygon fill="none" stroke="black" points="708.5,-2896 577.5,-2896 577.5,-2860 708.5,-2860 708.5,-2896"/>
<text text-anchor="middle" x="643" y="-2875.2" font-family="Courier,monospace" font-size="11.00">ilExamMgrFormRuns</text>
</g>
<!-- \\ilExamMgrForm -->
<g id="node30" class="node"><title>\\ilExamMgrForm</title>
<polygon fill="none" stroke="black" points="393,-2572 289,-2572 289,-2536 393,-2536 393,-2572"/>
<text text-anchor="start" x="307" y="-2557.2" font-family="Courier,monospace" font-size="11.00">«abstract»</text>
<text text-anchor="start" x="297" y="-2545.2" font-family="Courier,monospace" font-size="11.00">ilExamMgrForm</text>
</g>
<!-- \\ilExamMgrFormRuns&#45;&gt;\\ilExamMgrForm -->
<g id="edge2" class="edge"><title>\\ilExamMgrFormRuns&#45;&gt;\\ilExamMgrForm</title>
<path fill="none" stroke="black" d="M577.237,-2874.46C556.165,-2870.74 533.677,-2863.78 516,-2851 420.059,-2781.64 368.407,-2641.77 349.952,-2582.06"/>
<polygon fill="none" stroke="black" points="353.219,-2580.77 346.984,-2572.2 346.516,-2582.78 353.219,-2580.77"/>
</g>
<!-- \\ilExamMgrRoomsList -->
<g id="node3" class="node"><title>\\ilExamMgrRoomsList</title>
<polygon fill="none" stroke="black" points="712,-1870 574,-1870 574,-1834 712,-1834 712,-1870"/>
<text text-anchor="middle" x="643" y="-1849.2" font-family="Courier,monospace" font-size="11.00">ilExamMgrRoomsList</text>
</g>
<!-- \\ilExamMgrRoomsList&#45;&gt;\\ilExamMgrFormElement -->
<g id="edge3" class="edge"><title>\\ilExamMgrRoomsList&#45;&gt;\\ilExamMgrFormElement</title>
<path fill="none" stroke="black" d="M573.925,-1845.87C530.44,-1841.96 473.703,-1836.85 427.231,-1832.67"/>
<polygon fill="none" stroke="black" points="427.45,-1829.18 417.176,-1831.77 426.822,-1836.15 427.45,-1829.18"/>
</g>
<!-- \\ilExamMgrFormUserTransfer -->
<g id="node4" class="node"><title>\\ilExamMgrFormUserTransfer</title>
<polygon fill="none" stroke="black" points="735.5,-2842 550.5,-2842 550.5,-2806 735.5,-2806 735.5,-2842"/>
<text text-anchor="middle" x="643" y="-2821.2" font-family="Courier,monospace" font-size="11.00">ilExamMgrFormUserTransfer</text>
</g>
<!-- \\ilExamMgrFormUserTransfer&#45;&gt;\\ilExamMgrForm -->
<g id="edge4" class="edge"><title>\\ilExamMgrFormUserTransfer&#45;&gt;\\ilExamMgrForm</title>
<path fill="none" stroke="black" d="M550.308,-2812.78C538.188,-2808.93 526.384,-2803.81 516,-2797 432.6,-2742.33 376.356,-2632.79 353.498,-2581.58"/>
<polygon fill="none" stroke="black" points="356.587,-2579.91 349.374,-2572.15 350.174,-2582.71 356.587,-2579.91"/>
</g>
<!-- \\ilObjExamMgr -->
<g id="node5" class="node"><title>\\ilObjExamMgr</title>
<polygon fill="none" stroke="black" points="692,-1654 594,-1654 594,-1618 692,-1618 692,-1654"/>
<text text-anchor="middle" x="643" y="-1633.2" font-family="Courier,monospace" font-size="11.00">ilObjExamMgr</text>
</g>
<!-- \\ilObjectPlugin -->
<g id="node51" class="node"><title>\\ilObjectPlugin</title>
<ellipse fill="none" stroke="black" cx="341" cy="-504" rx="64.189" ry="18"/>
<text text-anchor="middle" x="341" y="-500.3" font-family="Times,serif" font-size="14.00" fill="gray">\ilObjectPlugin</text>
</g>
<!-- \\ilObjExamMgr&#45;&gt;\\ilObjectPlugin -->
<g id="edge5" class="edge"><title>\\ilObjExamMgr&#45;&gt;\\ilObjectPlugin</title>
<path fill="none" stroke="black" d="M593.99,-1638.79C566.972,-1637.57 534.951,-1630.91 516,-1609 358.223,-1426.56 601.655,-708.542 444,-526 436.399,-517.199 426.196,-511.428 415.174,-507.722"/>
<polygon fill="none" stroke="black" points="415.895,-504.289 405.322,-504.972 414.013,-511.031 415.895,-504.289"/>
</g>
<!-- \\ilHorizontalRadioGroupInputGUI -->
<g id="node6" class="node"><title>\\ilHorizontalRadioGroupInputGUI</title>
<polygon fill="none" stroke="black" points="752.5,-1600 533.5,-1600 533.5,-1564 752.5,-1564 752.5,-1600"/>
<text text-anchor="middle" x="643" y="-1579.2" font-family="Courier,monospace" font-size="11.00">ilHorizontalRadioGroupInputGUI</text>
</g>
<!-- \\ilRadioGroupInputGUI -->
<g id="node52" class="node"><title>\\ilRadioGroupInputGUI</title>
<ellipse fill="none" stroke="black" cx="341" cy="-450" rx="95.5831" ry="18"/>
<text text-anchor="middle" x="341" y="-446.3" font-family="Times,serif" font-size="14.00" fill="gray">\ilRadioGroupInputGUI</text>
</g>
<!-- \\ilHorizontalRadioGroupInputGUI&#45;&gt;\\ilRadioGroupInputGUI -->
<g id="edge6" class="edge"><title>\\ilHorizontalRadioGroupInputGUI&#45;&gt;\\ilRadioGroupInputGUI</title>
<path fill="none" stroke="black" d="M533.304,-1569.28C526.854,-1565.45 520.976,-1560.75 516,-1555 358.92,-1373.43 596.707,-662.266 444,-477 440.044,-472.201 435.343,-468.199 430.165,-464.869"/>
<polygon fill="none" stroke="black" points="431.498,-461.609 421.046,-459.875 428.135,-467.748 431.498,-461.609"/>
</g>
<!-- \\ilExamMgrFormBasic -->
<g id="node7" class="node"><title>\\ilExamMgrFormBasic</title>
<polygon fill="none" stroke="black" points="712,-2788 574,-2788 574,-2752 712,-2752 712,-2788"/>
<text text-anchor="middle" x="643" y="-2767.2" font-family="Courier,monospace" font-size="11.00">ilExamMgrFormBasic</text>
</g>
<!-- \\ilExamMgrFormBasic&#45;&gt;\\ilExamMgrForm -->
<g id="edge7" class="edge"><title>\\ilExamMgrFormBasic&#45;&gt;\\ilExamMgrForm</title>
<path fill="none" stroke="black" d="M573.824,-2763.26C554.248,-2759.29 533.484,-2752.99 516,-2743 444.738,-2702.3 386.027,-2622.47 358.638,-2580.78"/>
<polygon fill="none" stroke="black" points="361.492,-2578.75 353.123,-2572.25 355.614,-2582.55 361.492,-2578.75"/>
</g>
<!-- \\ilExamMgrCalDav -->
<g id="node8" class="node"><title>\\ilExamMgrCalDav</title>
<polygon fill="none" stroke="black" points="702,-2680 584,-2680 584,-2644 702,-2644 702,-2680"/>
<text text-anchor="middle" x="643" y="-2659.2" font-family="Courier,monospace" font-size="11.00">ilExamMgrCalDav</text>
</g>
<!-- \\ilExamMgrStudentParser -->
<g id="node9" class="node"><title>\\ilExamMgrStudentParser</title>
<polygon fill="none" stroke="black" points="725.5,-2626 560.5,-2626 560.5,-2590 725.5,-2590 725.5,-2626"/>
<text text-anchor="middle" x="643" y="-2605.2" font-family="Courier,monospace" font-size="11.00">ilExamMgrStudentParser</text>
</g>
<!-- \\ilExamMgrFormMailing -->
<g id="node10" class="node"><title>\\ilExamMgrFormMailing</title>
<polygon fill="none" stroke="black" points="719,-2734 567,-2734 567,-2698 719,-2698 719,-2734"/>
<text text-anchor="middle" x="643" y="-2713.2" font-family="Courier,monospace" font-size="11.00">ilExamMgrFormMailing</text>
</g>
<!-- \\ilExamMgrFormMailing&#45;&gt;\\ilExamMgrForm -->
<g id="edge8" class="edge"><title>\\ilExamMgrFormMailing&#45;&gt;\\ilExamMgrForm</title>
<path fill="none" stroke="black" d="M566.91,-2705.67C549.699,-2701.74 531.821,-2696.36 516,-2689 456.559,-2661.34 398.683,-2610.17 366.943,-2579.39"/>
<polygon fill="none" stroke="black" points="369.038,-2576.54 359.451,-2572.03 364.132,-2581.54 369.038,-2576.54"/>
</g>
<!-- \\ilExamMgrPDFGenerator -->
<g id="node11" class="node"><title>\\ilExamMgrPDFGenerator</title>
<polygon fill="none" stroke="black" points="722,-2518 564,-2518 564,-2482 722,-2482 722,-2518"/>
<text text-anchor="middle" x="643" y="-2497.2" font-family="Courier,monospace" font-size="11.00">ilExamMgrPDFGenerator</text>
</g>
<!-- \\ilExamMgrMailer -->
<g id="node12" class="node"><title>\\ilExamMgrMailer</title>
<polygon fill="none" stroke="black" points="702,-1546 584,-1546 584,-1510 702,-1510 702,-1546"/>
<text text-anchor="middle" x="643" y="-1525.2" font-family="Courier,monospace" font-size="11.00">ilExamMgrMailer</text>
</g>
<!-- \\PHPMailer -->
<g id="node53" class="node"><title>\\PHPMailer</title>
<ellipse fill="none" stroke="black" cx="341" cy="-396" rx="53.0913" ry="18"/>
<text text-anchor="middle" x="341" y="-392.3" font-family="Times,serif" font-size="14.00" fill="gray">\PHPMailer</text>
</g>
<!-- \\ilExamMgrMailer&#45;&gt;\\PHPMailer -->
<g id="edge9" class="edge"><title>\\ilExamMgrMailer&#45;&gt;\\PHPMailer</title>
<path fill="none" stroke="black" d="M583.783,-1530.07C559.262,-1527.69 532.613,-1520.2 516,-1501 358.92,-1319.43 596.707,-608.266 444,-423 434.012,-410.883 419.276,-403.853 404.092,-399.863"/>
<polygon fill="none" stroke="black" points="404.614,-396.394 394.095,-397.656 403.105,-403.229 404.614,-396.394"/>
</g>
<!-- \\LDAPEntryStaff -->
<g id="node13" class="node"><title>\\LDAPEntryStaff</title>
<polygon fill="none" stroke="black" points="698.5,-2410 587.5,-2410 587.5,-2374 698.5,-2374 698.5,-2410"/>
<text text-anchor="middle" x="643" y="-2389.2" font-family="Courier,monospace" font-size="11.00">LDAPEntryStaff</text>
</g>
<!-- \\LDAPEntryStudent -->
<g id="node14" class="node"><title>\\LDAPEntryStudent</title>
<polygon fill="none" stroke="black" points="705.5,-2356 580.5,-2356 580.5,-2320 705.5,-2320 705.5,-2356"/>
<text text-anchor="middle" x="643" y="-2335.2" font-family="Courier,monospace" font-size="11.00">LDAPEntryStudent</text>
</g>
<!-- \\LDAPCollectionStaff -->
<g id="node15" class="node"><title>\\LDAPCollectionStaff</title>
<polygon fill="none" stroke="black" points="715.5,-1492 570.5,-1492 570.5,-1456 715.5,-1456 715.5,-1492"/>
<text text-anchor="middle" x="643" y="-1471.2" font-family="Courier,monospace" font-size="11.00">LDAPCollectionStaff</text>
</g>
<!-- \\Zend\\Ldap\\Collection -->
<g id="node54" class="node"><title>\\Zend\\Ldap\\Collection</title>
<ellipse fill="none" stroke="black" cx="341" cy="-342" rx="90.9839" ry="18"/>
<text text-anchor="middle" x="341" y="-338.3" font-family="Times,serif" font-size="14.00" fill="gray">\Zend\Ldap\Collection</text>
</g>
<!-- \\LDAPCollectionStaff&#45;&gt;\\Zend\\Ldap\\Collection -->
<g id="edge10" class="edge"><title>\\LDAPCollectionStaff&#45;&gt;\\Zend\\Ldap\\Collection</title>
<path fill="none" stroke="black" d="M570.36,-1474.24C549.963,-1470.6 529.612,-1462.73 516,-1447 358.92,-1265.43 596.707,-554.266 444,-369 439.616,-363.682 434.318,-359.343 428.468,-355.812"/>
<polygon fill="none" stroke="black" points="430.036,-352.682 419.546,-351.195 426.819,-358.899 430.036,-352.682"/>
</g>
<!-- \\LDAPCollectionStudent -->
<g id="node16" class="node"><title>\\LDAPCollectionStudent</title>
<polygon fill="none" stroke="black" points="722,-1438 564,-1438 564,-1402 722,-1402 722,-1438"/>
<text text-anchor="middle" x="643" y="-1417.2" font-family="Courier,monospace" font-size="11.00">LDAPCollectionStudent</text>
</g>
<!-- \\LDAPCollectionStudent&#45;&gt;\\Zend\\Ldap\\Collection -->
<g id="edge11" class="edge"><title>\\LDAPCollectionStudent&#45;&gt;\\Zend\\Ldap\\Collection</title>
<path fill="none" stroke="black" d="M563.824,-1418.88C545.698,-1414.79 528.173,-1407.02 516,-1393 366.451,-1220.74 589.401,-544.773 444,-369 439.607,-363.689 434.302,-359.356 428.448,-355.829"/>
<polygon fill="none" stroke="black" points="430.011,-352.697 419.52,-351.216 426.798,-358.916 430.011,-352.697"/>
</g>
<!-- \\ilExamMgrLDAP -->
<g id="node17" class="node"><title>\\ilExamMgrLDAP</title>
<polygon fill="none" stroke="black" points="695,-2194 591,-2194 591,-2158 695,-2158 695,-2194"/>
<text text-anchor="middle" x="643" y="-2173.2" font-family="Courier,monospace" font-size="11.00">ilExamMgrLDAP</text>
</g>
<!-- \\ilExamMgrRoom -->
<g id="node18" class="node"><title>\\ilExamMgrRoom</title>
<polygon fill="none" stroke="black" points="695,-2140 591,-2140 591,-2104 695,-2104 695,-2140"/>
<text text-anchor="middle" x="643" y="-2119.2" font-family="Courier,monospace" font-size="11.00">ilExamMgrRoom</text>
</g>
<!-- \\ilExamMgrDummyTicket -->
<g id="node19" class="node"><title>\\ilExamMgrDummyTicket</title>
<polygon fill="none" stroke="black" points="719,-3004 567,-3004 567,-2968 719,-2968 719,-3004"/>
<text text-anchor="middle" x="643" y="-2983.2" font-family="Courier,monospace" font-size="11.00">ilExamMgrDummyTicket</text>
</g>
<!-- \\RTTicket -->
<g id="node50" class="node"><title>\\RTTicket</title>
<polygon fill="none" stroke="black" points="376.5,-3031 305.5,-3031 305.5,-2995 376.5,-2995 376.5,-3031"/>
<text text-anchor="middle" x="341" y="-3010.2" font-family="Courier,monospace" font-size="11.00">RTTicket</text>
</g>
<!-- \\ilExamMgrDummyTicket&#45;&gt;\\RTTicket -->
<g id="edge12" class="edge"><title>\\ilExamMgrDummyTicket&#45;&gt;\\RTTicket</title>
<path fill="none" stroke="black" stroke-dasharray="1,5" d="M566.685,-2992.78C509.927,-2997.89 434.017,-3004.72 386.572,-3008.99"/>
<polygon fill="none" stroke="black" points="386.253,-3005.5 376.607,-3009.89 386.88,-3012.47 386.253,-3005.5"/>
</g>
<!-- \\ilExamMgrTicket -->
<g id="node20" class="node"><title>\\ilExamMgrTicket</title>
<polygon fill="none" stroke="black" points="702,-3058 584,-3058 584,-3022 702,-3022 702,-3058"/>
<text text-anchor="middle" x="643" y="-3037.2" font-family="Courier,monospace" font-size="11.00">ilExamMgrTicket</text>
</g>
<!-- \\ilExamMgrTicket&#45;&gt;\\RTTicket -->
<g id="edge13" class="edge"><title>\\ilExamMgrTicket&#45;&gt;\\RTTicket</title>
<path fill="none" stroke="black" stroke-dasharray="1,5" d="M583.801,-3034.76C526.134,-3029.57 439.052,-3021.73 386.64,-3017.02"/>
<polygon fill="none" stroke="black" points="386.912,-3013.53 376.639,-3016.12 386.285,-3020.5 386.912,-3013.53"/>
</g>
<!-- \\NameMismatchException -->
<g id="node21" class="node"><title>\\NameMismatchException</title>
<polygon fill="none" stroke="black" points="722,-1330 564,-1330 564,-1294 722,-1294 722,-1330"/>
<text text-anchor="middle" x="643" y="-1309.2" font-family="Courier,monospace" font-size="11.00">NameMismatchException</text>
</g>
<!-- \\Exception -->
<g id="node55" class="node"><title>\\Exception</title>
<ellipse fill="none" stroke="black" cx="341" cy="-288" rx="48.9926" ry="18"/>
<text text-anchor="middle" x="341" y="-284.3" font-family="Times,serif" font-size="14.00" fill="gray">\Exception</text>
</g>
<!-- \\NameMismatchException&#45;&gt;\\Exception -->
<g id="edge14" class="edge"><title>\\NameMismatchException&#45;&gt;\\Exception</title>
<path fill="none" stroke="black" d="M563.861,-1310.85C545.734,-1306.76 528.2,-1299 516,-1285 373.98,-1122.06 582.096,-481.282 444,-315 433.097,-301.871 416.62,-294.722 400.072,-290.94"/>
<polygon fill="none" stroke="black" points="400.284,-287.418 389.807,-288.996 398.982,-294.295 400.284,-287.418"/>
</g>
<!-- \\AccountNotFoundException -->
<g id="node22" class="node"><title>\\AccountNotFoundException</title>
<polygon fill="none" stroke="black" points="732.5,-1276 553.5,-1276 553.5,-1240 732.5,-1240 732.5,-1276"/>
<text text-anchor="middle" x="643" y="-1255.2" font-family="Courier,monospace" font-size="11.00">AccountNotFoundException</text>
</g>
<!-- \\AccountNotFoundException&#45;&gt;\\Exception -->
<g id="edge15" class="edge"><title>\\AccountNotFoundException&#45;&gt;\\Exception</title>
<path fill="none" stroke="black" d="M553.198,-1253.92C539.01,-1249.39 525.799,-1242.19 516,-1231 381.507,-1077.37 574.793,-471.793 444,-315 433.068,-301.895 416.584,-294.752 400.037,-290.968"/>
<polygon fill="none" stroke="black" points="400.252,-287.447 389.775,-289.023 398.948,-294.324 400.252,-287.447"/>
</g>
<!-- \\MatriculationNotFoundException -->
<g id="node23" class="node"><title>\\MatriculationNotFoundException</title>
<polygon fill="none" stroke="black" points="752.5,-1222 533.5,-1222 533.5,-1186 752.5,-1186 752.5,-1222"/>
<text text-anchor="middle" x="643" y="-1201.2" font-family="Courier,monospace" font-size="11.00">MatriculationNotFoundException</text>
</g>
<!-- \\MatriculationNotFoundException&#45;&gt;\\Exception -->
<g id="edge16" class="edge"><title>\\MatriculationNotFoundException&#45;&gt;\\Exception</title>
<path fill="none" stroke="black" d="M533.412,-1191.19C526.936,-1187.38 521.024,-1182.71 516,-1177 389.032,-1032.68 567.492,-462.307 444,-315 433.036,-301.922 416.543,-294.787 399.998,-291.001"/>
<polygon fill="none" stroke="black" points="400.216,-287.48 389.738,-289.053 398.91,-294.357 400.216,-287.48"/>
</g>
<!-- \\NameNotFoundException -->
<g id="node24" class="node"><title>\\NameNotFoundException</title>
<polygon fill="none" stroke="black" points="722,-1114 564,-1114 564,-1078 722,-1078 722,-1114"/>
<text text-anchor="middle" x="643" y="-1093.2" font-family="Courier,monospace" font-size="11.00">NameNotFoundException</text>
</g>
<!-- \\NameNotFoundException&#45;&gt;\\Exception -->
<g id="edge17" class="edge"><title>\\NameNotFoundException&#45;&gt;\\Exception</title>
<path fill="none" stroke="black" d="M563.735,-1094.6C545.721,-1090.49 528.273,-1082.78 516,-1069 404.074,-943.288 552.898,-443.344 444,-315 432.959,-301.987 416.445,-294.87 399.904,-291.08"/>
<polygon fill="none" stroke="black" points="400.128,-287.56 389.65,-289.128 398.819,-294.436 400.128,-287.56"/>
</g>
<!-- \\NameNotUniqueException -->
<g id="node25" class="node"><title>\\NameNotUniqueException</title>
<polygon fill="none" stroke="black" points="725.5,-1060 560.5,-1060 560.5,-1024 725.5,-1024 725.5,-1060"/>
<text text-anchor="middle" x="643" y="-1039.2" font-family="Courier,monospace" font-size="11.00">NameNotUniqueException</text>
</g>
<!-- \\NameNotUniqueException&#45;&gt;\\Exception -->
<g id="edge18" class="edge"><title>\\NameNotUniqueException&#45;&gt;\\Exception</title>
<path fill="none" stroke="black" d="M560.21,-1039.67C543.484,-1035.38 527.502,-1027.82 516,-1015 307.179,-782.174 647.212,-552.737 444,-315 432.961,-302.085 416.531,-294.984 400.067,-291.18"/>
<polygon fill="none" stroke="black" points="400.34,-287.668 389.859,-289.215 399.017,-294.542 400.34,-287.668"/>
</g>
<!-- \\HandledGuzzleException -->
<g id="node26" class="node"><title>\\HandledGuzzleException</title>
<polygon fill="none" stroke="black" points="725.5,-1384 560.5,-1384 560.5,-1348 725.5,-1348 725.5,-1384"/>
<text text-anchor="middle" x="643" y="-1363.2" font-family="Courier,monospace" font-size="11.00">HandledGuzzleException</text>
</g>
<!-- \\HandledGuzzleException&#45;&gt;\\Exception -->
<g id="edge19" class="edge"><title>\\HandledGuzzleException&#45;&gt;\\Exception</title>
<path fill="none" stroke="black" d="M560.23,-1364.02C543.399,-1359.73 527.366,-1352.09 516,-1339 366.451,-1166.74 589.401,-490.773 444,-315 433.122,-301.85 416.653,-294.695 400.103,-290.914"/>
<polygon fill="none" stroke="black" points="400.313,-287.392 389.836,-288.972 399.012,-294.27 400.313,-287.392"/>
</g>
<!-- \\ilObjExamMgrListGUI -->
<g id="node27" class="node"><title>\\ilObjExamMgrListGUI</title>
<polygon fill="none" stroke="black" points="715.5,-952 570.5,-952 570.5,-916 715.5,-916 715.5,-952"/>
<text text-anchor="middle" x="643" y="-931.2" font-family="Courier,monospace" font-size="11.00">ilObjExamMgrListGUI</text>
</g>
<!-- \\ilObjectPluginListGUI -->
<g id="node56" class="node"><title>\\ilObjectPluginListGUI</title>
<ellipse fill="none" stroke="black" cx="341" cy="-234" rx="93.6835" ry="18"/>
<text text-anchor="middle" x="341" y="-230.3" font-family="Times,serif" font-size="14.00" fill="gray">\ilObjectPluginListGUI</text>
</g>
<!-- \\ilObjExamMgrListGUI&#45;&gt;\\ilObjectPluginListGUI -->
<g id="edge20" class="edge"><title>\\ilObjExamMgrListGUI&#45;&gt;\\ilObjectPluginListGUI</title>
<path fill="none" stroke="black" d="M570.451,-933.807C550.183,-930.128 529.882,-922.346 516,-907 322.2,-692.761 632.638,-479.797 444,-261 439.722,-256.038 434.648,-251.935 429.085,-248.549"/>
<polygon fill="none" stroke="black" points="430.468,-245.323 419.983,-243.796 427.228,-251.528 430.468,-245.323"/>
</g>
<!-- \\ilExamMgrFormCreateCourseLocal -->
<g id="node28" class="node"><title>\\ilExamMgrFormCreateCourseLocal</title>
<polygon fill="none" stroke="black" points="752.5,-2302 533.5,-2302 533.5,-2266 752.5,-2266 752.5,-2302"/>
<text text-anchor="middle" x="643" y="-2281.2" font-family="Courier,monospace" font-size="11.00">ilExamMgrFormCreateCourseLocal</text>
</g>
<!-- \\ilExamMgrFormCreateCourseLocal&#45;&gt;\\ilExamMgrForm -->
<g id="edge21" class="edge"><title>\\ilExamMgrFormCreateCourseLocal&#45;&gt;\\ilExamMgrForm</title>
<path fill="none" stroke="black" d="M533.283,-2301.65C527.239,-2304.35 521.426,-2307.44 516,-2311 432.6,-2365.67 376.356,-2475.21 353.498,-2526.42"/>
<polygon fill="none" stroke="black" points="350.174,-2525.29 349.374,-2535.85 356.587,-2528.09 350.174,-2525.29"/>
</g>
<!-- \\ilExamMGrFormUserUpload -->
<g id="node29" class="node"><title>\\ilExamMGrFormUserUpload</title>
<polygon fill="none" stroke="black" points="729,-2248 557,-2248 557,-2212 729,-2212 729,-2248"/>
<text text-anchor="middle" x="643" y="-2227.2" font-family="Courier,monospace" font-size="11.00">ilExamMGrFormUserUpload</text>
</g>
<!-- \\ilExamMGrFormUserUpload&#45;&gt;\\ilExamMgrForm -->
<g id="edge22" class="edge"><title>\\ilExamMGrFormUserUpload&#45;&gt;\\ilExamMgrForm</title>
<path fill="none" stroke="black" d="M556.908,-2238.15C542.351,-2242.27 528.056,-2248.28 516,-2257 420.059,-2326.36 368.407,-2466.23 349.952,-2525.94"/>
<polygon fill="none" stroke="black" points="346.516,-2525.22 346.984,-2535.8 353.219,-2527.23 346.516,-2525.22"/>
</g>
<!-- \\ilPropertyFormGUI -->
<g id="node57" class="node"><title>\\ilPropertyFormGUI</title>
<ellipse fill="none" stroke="black" cx="83" cy="-2554" rx="83.3857" ry="18"/>
<text text-anchor="middle" x="83" y="-2550.3" font-family="Times,serif" font-size="14.00" fill="gray">\ilPropertyFormGUI</text>
</g>
<!-- \\ilExamMgrForm&#45;&gt;\\ilPropertyFormGUI -->
<g id="edge23" class="edge"><title>\\ilExamMgrForm&#45;&gt;\\ilPropertyFormGUI</title>
<path fill="none" stroke="black" d="M288.81,-2554C256.663,-2554 214.26,-2554 176.379,-2554"/>
<polygon fill="none" stroke="black" points="176.343,-2550.5 166.343,-2554 176.343,-2557.5 176.343,-2550.5"/>
</g>
<!-- \\ilFormPropertyGUI -->
<g id="node58" class="node"><title>\\ilFormPropertyGUI</title>
<ellipse fill="none" stroke="black" cx="83" cy="-1825" rx="83.3857" ry="18"/>
<text text-anchor="middle" x="83" y="-1821.3" font-family="Times,serif" font-size="14.00" fill="gray">\ilFormPropertyGUI</text>
</g>
<!-- \\ilExamMgrFormElement&#45;&gt;\\ilFormPropertyGUI -->
<g id="edge24" class="edge"><title>\\ilExamMgrFormElement&#45;&gt;\\ilFormPropertyGUI</title>
<path fill="none" stroke="black" d="M264.921,-1825C237.207,-1825 205.474,-1825 176.403,-1825"/>
<polygon fill="none" stroke="black" points="176.242,-1821.5 166.242,-1825 176.242,-1828.5 176.242,-1821.5"/>
</g>
<!-- \\ilExamMgrFormExamTransfer -->
<g id="node32" class="node"><title>\\ilExamMgrFormExamTransfer</title>
<polygon fill="none" stroke="black" points="735.5,-2086 550.5,-2086 550.5,-2050 735.5,-2050 735.5,-2086"/>
<text text-anchor="middle" x="643" y="-2065.2" font-family="Courier,monospace" font-size="11.00">ilExamMgrFormExamTransfer</text>
</g>
<!-- \\ilExamMgrFormExamTransfer&#45;&gt;\\ilExamMgrForm -->
<g id="edge25" class="edge"><title>\\ilExamMgrFormExamTransfer&#45;&gt;\\ilExamMgrForm</title>
<path fill="none" stroke="black" d="M550.457,-2076.19C537.897,-2080.43 525.927,-2086.47 516,-2095 380.795,-2211.16 350.371,-2443.91 343.765,-2525.19"/>
<polygon fill="none" stroke="black" points="340.24,-2525.4 342.982,-2535.63 347.22,-2525.92 340.24,-2525.4"/>
</g>
<!-- \\ilExamMgrCreateRandomPasswordButton -->
<g id="node33" class="node"><title>\\ilExamMgrCreateRandomPasswordButton</title>
<polygon fill="none" stroke="black" points="769.5,-1978 516.5,-1978 516.5,-1942 769.5,-1942 769.5,-1978"/>
<text text-anchor="middle" x="643" y="-1957.2" font-family="Courier,monospace" font-size="11.00">ilExamMgrCreateRandomPasswordButton</text>
</g>
<!-- \\ilExamMgrCreateRandomPasswordButton&#45;&gt;\\ilExamMgrFormElement -->
<g id="edge26" class="edge"><title>\\ilExamMgrCreateRandomPasswordButton&#45;&gt;\\ilExamMgrFormElement</title>
<path fill="none" stroke="black" d="M541.992,-1941.92C533.081,-1939.31 524.299,-1936.35 516,-1933 462.499,-1911.43 406.921,-1873.82 373.389,-1849.16"/>
<polygon fill="none" stroke="black" points="375.468,-1846.35 365.354,-1843.19 371.293,-1851.97 375.468,-1846.35"/>
</g>
<!-- \\ilExamMgrFormCreateCourseRemote -->
<g id="node34" class="node"><title>\\ilExamMgrFormCreateCourseRemote</title>
<polygon fill="none" stroke="black" points="756,-2032 530,-2032 530,-1996 756,-1996 756,-2032"/>
<text text-anchor="middle" x="643" y="-2011.2" font-family="Courier,monospace" font-size="11.00">ilExamMgrFormCreateCourseRemote</text>
</g>
<!-- \\ilExamMgrFormCreateCourseRemote&#45;&gt;\\ilExamMgrForm -->
<g id="edge27" class="edge"><title>\\ilExamMgrFormCreateCourseRemote&#45;&gt;\\ilExamMgrForm</title>
<path fill="none" stroke="black" d="M529.864,-2031.02C524.923,-2033.9 520.261,-2037.21 516,-2041 366.966,-2173.69 345.449,-2438.82 342.449,-2525.71"/>
<polygon fill="none" stroke="black" points="338.946,-2525.76 342.157,-2535.86 345.943,-2525.96 338.946,-2525.76"/>
</g>
<!-- \\ilExamMgrConfigGUI -->
<g id="node35" class="node"><title>\\ilExamMgrConfigGUI</title>
<polygon fill="none" stroke="black" points="712,-844 574,-844 574,-808 712,-808 712,-844"/>
<text text-anchor="middle" x="643" y="-823.2" font-family="Courier,monospace" font-size="11.00">ilExamMgrConfigGUI</text>
</g>
<!-- \\ilPluginConfigGUI -->
<g id="node59" class="node"><title>\\ilPluginConfigGUI</title>
<ellipse fill="none" stroke="black" cx="341" cy="-180" rx="81.4863" ry="18"/>
<text text-anchor="middle" x="341" y="-176.3" font-family="Times,serif" font-size="14.00" fill="gray">\ilPluginConfigGUI</text>
</g>
<!-- \\ilExamMgrConfigGUI&#45;&gt;\\ilPluginConfigGUI -->
<g id="edge28" class="edge"><title>\\ilExamMgrConfigGUI&#45;&gt;\\ilPluginConfigGUI</title>
<path fill="none" stroke="black" d="M573.829,-826.284C552.496,-822.856 530.714,-815.102 516,-799 337.209,-603.334 618.077,-406.872 444,-207 438.379,-200.546 431.413,-195.549 423.78,-191.692"/>
<polygon fill="none" stroke="black" points="425.118,-188.457 414.553,-187.668 422.32,-194.873 425.118,-188.457"/>
</g>
<!-- \\ilExamMgrUserManageGUI -->
<g id="node36" class="node"><title>\\ilExamMgrUserManageGUI</title>
<polygon fill="none" stroke="black" points="725.5,-1816 560.5,-1816 560.5,-1780 725.5,-1780 725.5,-1816"/>
<text text-anchor="middle" x="643" y="-1795.2" font-family="Courier,monospace" font-size="11.00">ilExamMgrUserManageGUI</text>
</g>
<!-- \\ilExamMgrUserManageGUI&#45;&gt;\\ilExamMgrFormElement -->
<g id="edge29" class="edge"><title>\\ilExamMgrUserManageGUI&#45;&gt;\\ilExamMgrFormElement</title>
<path fill="none" stroke="black" d="M560.42,-1805.34C519.145,-1809.06 469.074,-1813.56 427.29,-1817.32"/>
<polygon fill="none" stroke="black" points="426.779,-1813.86 417.133,-1818.24 427.407,-1820.83 426.779,-1813.86"/>
</g>
<!-- \\ilExamMgrRunList -->
<g id="node37" class="node"><title>\\ilExamMgrRunList</title>
<polygon fill="none" stroke="black" points="705.5,-1762 580.5,-1762 580.5,-1726 705.5,-1726 705.5,-1762"/>
<text text-anchor="middle" x="643" y="-1741.2" font-family="Courier,monospace" font-size="11.00">ilExamMgrRunList</text>
</g>
<!-- \\ilExamMgrRunList&#45;&gt;\\ilExamMgrFormElement -->
<g id="edge30" class="edge"><title>\\ilExamMgrRunList&#45;&gt;\\ilExamMgrFormElement</title>
<path fill="none" stroke="black" d="M580.215,-1756.08C559.69,-1760.41 536.777,-1765.56 516,-1771 479.119,-1780.65 438.395,-1793.19 405.623,-1803.75"/>
<polygon fill="none" stroke="black" points="404.154,-1800.55 395.721,-1806.96 406.313,-1807.2 404.154,-1800.55"/>
</g>
<!-- \\ilExamMgrStudent -->
<g id="node38" class="node"><title>\\ilExamMgrStudent</title>
<polygon fill="none" stroke="black" points="705.5,-1168 580.5,-1168 580.5,-1132 705.5,-1132 705.5,-1168"/>
<text text-anchor="middle" x="643" y="-1147.2" font-family="Courier,monospace" font-size="11.00">ilExamMgrStudent</text>
</g>
<!-- \\ilExamMgrPlugin -->
<g id="node39" class="node"><title>\\ilExamMgrPlugin</title>
<polygon fill="none" stroke="black" points="702,-790 584,-790 584,-754 702,-754 702,-790"/>
<text text-anchor="middle" x="643" y="-769.2" font-family="Courier,monospace" font-size="11.00">ilExamMgrPlugin</text>
</g>
<!-- \\ilRepositoryObjectPlugin -->
<g id="node60" class="node"><title>\\ilRepositoryObjectPlugin</title>
<ellipse fill="none" stroke="black" cx="341" cy="-126" rx="102.882" ry="18"/>
<text text-anchor="middle" x="341" y="-122.3" font-family="Times,serif" font-size="14.00" fill="gray">\ilRepositoryObjectPlugin</text>
</g>
<!-- \\ilExamMgrPlugin&#45;&gt;\\ilRepositoryObjectPlugin -->
<g id="edge31" class="edge"><title>\\ilExamMgrPlugin&#45;&gt;\\ilRepositoryObjectPlugin</title>
<path fill="none" stroke="black" d="M583.939,-773.607C559.601,-771.11 533.053,-763.662 516,-745 337.209,-549.334 618.077,-352.872 444,-153 440.316,-148.77 436.053,-145.165 431.403,-142.097"/>
<polygon fill="none" stroke="black" points="433.082,-139.025 422.657,-137.135 429.627,-145.113 433.082,-139.025"/>
</g>
<!-- \\ilExamMgrFormUserManage -->
<g id="node40" class="node"><title>\\ilExamMgrFormUserManage</title>
<polygon fill="none" stroke="black" points="729,-2950 557,-2950 557,-2914 729,-2914 729,-2950"/>
<text text-anchor="middle" x="643" y="-2929.2" font-family="Courier,monospace" font-size="11.00">ilExamMgrFormUserManage</text>
</g>
<!-- \\ilExamMgrFormUserManage&#45;&gt;\\ilExamMgrForm -->
<g id="edge32" class="edge"><title>\\ilExamMgrFormUserManage&#45;&gt;\\ilExamMgrForm</title>
<path fill="none" stroke="black" d="M556.724,-2924.62C542.103,-2920.43 527.834,-2914.2 516,-2905 406.926,-2820.2 361.395,-2648.98 347.242,-2581.88"/>
<polygon fill="none" stroke="black" points="350.662,-2581.13 345.235,-2572.03 343.803,-2582.53 350.662,-2581.13"/>
</g>
<!-- \\ilExamMgrRemoteCrs -->
<g id="node41" class="node"><title>\\ilExamMgrRemoteCrs</title>
<polygon fill="none" stroke="black" points="712,-1006 574,-1006 574,-970 712,-970 712,-1006"/>
<text text-anchor="middle" x="643" y="-985.2" font-family="Courier,monospace" font-size="11.00">ilExamMgrRemoteCrs</text>
</g>
<!-- \\ilExamMgrFormPrinting -->
<g id="node42" class="node"><title>\\ilExamMgrFormPrinting</title>
<polygon fill="none" stroke="black" points="722,-2572 564,-2572 564,-2536 722,-2536 722,-2572"/>
<text text-anchor="middle" x="643" y="-2551.2" font-family="Courier,monospace" font-size="11.00">ilExamMgrFormPrinting</text>
</g>
<!-- \\ilExamMgrFormPrinting&#45;&gt;\\ilExamMgrForm -->
<g id="edge33" class="edge"><title>\\ilExamMgrFormPrinting&#45;&gt;\\ilExamMgrForm</title>
<path fill="none" stroke="black" d="M563.962,-2554C513.927,-2554 449.891,-2554 403.471,-2554"/>
<polygon fill="none" stroke="black" points="403.255,-2550.5 393.255,-2554 403.255,-2557.5 403.255,-2550.5"/>
</g>
<!-- \\ilExamMgrREST -->
<g id="node43" class="node"><title>\\ilExamMgrREST</title>
<polygon fill="none" stroke="black" points="695,-898 591,-898 591,-862 695,-862 695,-898"/>
<text text-anchor="middle" x="643" y="-877.2" font-family="Courier,monospace" font-size="11.00">ilExamMgrREST</text>
</g>
<!-- \\ilObjExamMgrAccess -->
<g id="node44" class="node"><title>\\ilObjExamMgrAccess</title>
<polygon fill="none" stroke="black" points="712,-628 574,-628 574,-592 712,-592 712,-628"/>
<text text-anchor="middle" x="643" y="-607.2" font-family="Courier,monospace" font-size="11.00">ilObjExamMgrAccess</text>
</g>
<!-- \\ilObjectPluginAccess -->
<g id="node61" class="node"><title>\\ilObjectPluginAccess</title>
<ellipse fill="none" stroke="black" cx="341" cy="-72" rx="89.0842" ry="18"/>
<text text-anchor="middle" x="341" y="-68.3" font-family="Times,serif" font-size="14.00" fill="gray">\ilObjectPluginAccess</text>
</g>
<!-- \\ilObjExamMgrAccess&#45;&gt;\\ilObjectPluginAccess -->
<g id="edge34" class="edge"><title>\\ilObjExamMgrAccess&#45;&gt;\\ilObjectPluginAccess</title>
<path fill="none" stroke="black" d="M573.747,-610.003C552.537,-606.532 530.85,-598.823 516,-583 367.172,-424.422 589.006,-261.081 444,-99 439.088,-93.5093 433.201,-89.0774 426.768,-85.5072"/>
<polygon fill="none" stroke="black" points="428.227,-82.3251 417.697,-81.1542 425.199,-88.6361 428.227,-82.3251"/>
</g>
<!-- \\ilExamMgrFormRooms -->
<g id="node45" class="node"><title>\\ilExamMgrFormRooms</title>
<polygon fill="none" stroke="black" points="712,-2464 574,-2464 574,-2428 712,-2428 712,-2464"/>
<text text-anchor="middle" x="643" y="-2443.2" font-family="Courier,monospace" font-size="11.00">ilExamMgrFormRooms</text>
</g>
<!-- \\ilExamMgrFormRooms&#45;&gt;\\ilExamMgrForm -->
<g id="edge35" class="edge"><title>\\ilExamMgrFormRooms&#45;&gt;\\ilExamMgrForm</title>
<path fill="none" stroke="black" d="M573.893,-2457.68C554.918,-2461.72 534.454,-2466.81 516,-2473 469.306,-2488.65 418.534,-2513.23 383.954,-2531.21"/>
<polygon fill="none" stroke="black" points="382.317,-2528.11 375.086,-2535.86 385.568,-2534.31 382.317,-2528.11"/>
</g>
<!-- \\ilTreeNode -->
<g id="node46" class="node"><title>\\ilTreeNode</title>
<polygon fill="none" stroke="black" points="685,-736 601,-736 601,-700 685,-700 685,-736"/>
<text text-anchor="middle" x="643" y="-715.2" font-family="Courier,monospace" font-size="11.00">ilTreeNode</text>
</g>
<!-- \\ilExamMgrRun -->
<g id="node47" class="node"><title>\\ilExamMgrRun</title>
<polygon fill="none" stroke="black" points="692,-682 594,-682 594,-646 692,-646 692,-682"/>
<text text-anchor="middle" x="643" y="-661.2" font-family="Courier,monospace" font-size="11.00">ilExamMgrRun</text>
</g>
<!-- \\ilObjExamMgrGUI -->
<g id="node48" class="node"><title>\\ilObjExamMgrGUI</title>
<polygon fill="none" stroke="black" points="702,-574 584,-574 584,-538 702,-538 702,-574"/>
<text text-anchor="middle" x="643" y="-553.2" font-family="Courier,monospace" font-size="11.00">ilObjExamMgrGUI</text>
</g>
<!-- \\ilObjectPluginGUI -->
<g id="node62" class="node"><title>\\ilObjectPluginGUI</title>
<ellipse fill="none" stroke="black" cx="341" cy="-18" rx="79.8859" ry="18"/>
<text text-anchor="middle" x="341" y="-14.3" font-family="Times,serif" font-size="14.00" fill="gray">\ilObjectPluginGUI</text>
</g>
<!-- \\ilObjExamMgrGUI&#45;&gt;\\ilObjectPluginGUI -->
<g id="edge36" class="edge"><title>\\ilObjExamMgrGUI&#45;&gt;\\ilObjectPluginGUI</title>
<path fill="none" stroke="black" d="M640.696,-537.819C634.405,-464.164 600.69,-185.211 444,-45 437.133,-38.8552 429.026,-34.0827 420.432,-30.3806"/>
<polygon fill="none" stroke="black" points="421.542,-27.058 410.951,-26.7692 419.05,-33.5995 421.542,-27.058"/>
</g>
<!-- \\ilExamMgrTestsList -->
<g id="node49" class="node"><title>\\ilExamMgrTestsList</title>
<polygon fill="none" stroke="black" points="712,-1708 574,-1708 574,-1672 712,-1672 712,-1708"/>
<text text-anchor="middle" x="643" y="-1687.2" font-family="Courier,monospace" font-size="11.00">ilExamMgrTestsList</text>
</g>
<!-- \\ilExamMgrTestsList&#45;&gt;\\ilExamMgrFormElement -->
<g id="edge37" class="edge"><title>\\ilExamMgrTestsList&#45;&gt;\\ilExamMgrFormElement</title>
<path fill="none" stroke="black" d="M573.693,-1700.18C554.619,-1704.21 534.155,-1709.68 516,-1717 462.499,-1738.57 406.921,-1776.18 373.389,-1800.84"/>
<polygon fill="none" stroke="black" points="371.293,-1798.03 365.354,-1806.81 375.468,-1803.65 371.293,-1798.03"/>
</g>
</g>
</svg>
